<svg xmlns="http://www.w3.org/2000/svg" data-name="Layer 2" viewBox="0 0 100 100" x="0px" y="0px"><title>etc4</title><path d="M23.21,51.31H76.79a1,1,0,0,0,1-1V16.13a1,1,0,0,0-1-1H23.21a1,1,0,0,0-1,1V50.31A1,1,0,0,0,23.21,51.31Zm1-34.19H75.79V49.31H24.21V17.13Z"></path><path d="M25.26,72.82A6.27,6.27,0,1,0,19,66.54,6.28,6.28,0,0,0,25.26,72.82Zm0-10.55A4.27,4.27,0,1,1,21,66.54,4.28,4.28,0,0,1,25.26,62.27Z"></path><path d="M25.27,73.23a7.62,7.62,0,0,0-7.61,7.61v3a1,1,0,0,0,2,0v-3a5.61,5.61,0,1,1,11.23,0v3a1,1,0,0,0,2,0v-3A7.62,7.62,0,0,0,25.27,73.23Z"></path><path d="M35.47,66.54a6.27,6.27,0,1,0,6.27-6.27A6.28,6.28,0,0,0,35.47,66.54Zm10.55,0a4.27,4.27,0,1,1-4.27-4.27A4.28,4.28,0,0,1,46,66.54Z"></path><path d="M41.76,73.23a7.62,7.62,0,0,0-7.61,7.61v3a1,1,0,0,0,2,0v-3a5.61,5.61,0,1,1,11.23,0v3a1,1,0,0,0,2,0v-3A7.62,7.62,0,0,0,41.76,73.23Z"></path><path d="M52,66.54a6.27,6.27,0,1,0,6.27-6.27A6.28,6.28,0,0,0,52,66.54Zm10.55,0a4.27,4.27,0,1,1-4.27-4.27A4.28,4.28,0,0,1,62.51,66.54Z"></path><path d="M58.24,73.23a7.62,7.62,0,0,0-7.61,7.61v3a1,1,0,0,0,2,0v-3a5.61,5.61,0,1,1,11.23,0v3a1,1,0,1,0,2,0v-3A7.62,7.62,0,0,0,58.24,73.23Z"></path><path d="M68.45,66.54a6.27,6.27,0,1,0,6.27-6.27A6.28,6.28,0,0,0,68.45,66.54Zm10.55,0a4.27,4.27,0,1,1-4.27-4.27A4.28,4.28,0,0,1,79,66.54Z"></path><path d="M74.73,73.23a7.62,7.62,0,0,0-7.61,7.61v3a1,1,0,0,0,2,0v-3a5.61,5.61,0,1,1,11.23,0v3a1,1,0,0,0,2,0v-3A7.62,7.62,0,0,0,74.73,73.23Z"></path></svg>