<?xml version="1.0" ?><svg enable-background="new 0 0 512 512" id="Layer_1" version="1.1" viewBox="0 0 512 512" xml:space="preserve" xmlns="http://www.w3.org/2000/svg" xmlns:xlink="http://www.w3.org/1999/xlink"><g><g><linearGradient gradientUnits="userSpaceOnUse" id="SVGID_1_" x1="0.0000038" x2="512" y1="256" y2="256"><stop offset="0" style="stop-color:#8DC63F"/><stop offset="1" style="stop-color:#76B83F"/></linearGradient><circle cx="256" cy="256" fill="url(#SVGID_1_)" r="256"/><linearGradient gradientUnits="userSpaceOnUse" id="SVGID_2_" x1="42.6666679" x2="469.3333435" y1="256.0005188" y2="256.0005188"><stop offset="0" style="stop-color:#76B83F"/><stop offset="1" style="stop-color:#8DC63F"/></linearGradient><path d="M256,469.3338623c-117.6314697,0-213.3333282-95.7018738-213.3333282-213.3333435    c0-117.6309204,95.7018585-213.333313,213.3333282-213.333313c117.6357422,0,213.3333435,95.7024002,213.3333435,213.333313    C469.3333435,373.6319885,373.6357422,469.3338623,256,469.3338623z" fill="url(#SVGID_2_)"/></g><g><rect height="107.3717346" opacity="0.3" width="169.9978638" x="179.0026703" y="188.1893311"/><path d="M368.9989319,153.1871948H159.0010681c-8.2842712,0-14.9994659,6.715744-14.9994659,15v147.3712158    c0,8.28479,6.7151947,14.9994507,14.9994659,14.9994507h73.4186707l-9.5285339,34.2554626h-28.0053406v9.9994812h138.2256165    v-9.9994812h-28.0025635l-9.528656-34.2554626h73.4186707c8.2837219,0,14.9994812-6.7146606,14.9994812-14.9994507V168.1871948    C383.9984131,159.9029388,377.2826538,153.1871948,368.9989319,153.1871948z M359.0005188,305.5610657H169.0026703V178.1893311    h189.9978485V305.5610657z" opacity="0.3"/></g><g><rect fill="#FFFFFF" height="107.3717346" width="169.9978638" x="171.0026703" y="180.1893311"/><path d="M360.9989319,145.1871948H151.0010681c-8.2842712,0-14.9994659,6.715744-14.9994659,15v147.3712158    c0,8.28479,6.7151947,14.9994507,14.9994659,14.9994507h73.4186707l-9.5285339,34.2554626h-28.0053406v9.9994812h138.2256165    v-9.9994812h-28.0025635l-9.528656-34.2554626h73.4186707c8.2837219,0,14.9994812-6.7146606,14.9994812-14.9994507V160.1871948    C375.9984131,151.9029388,369.2826538,145.1871948,360.9989319,145.1871948z M351.0005188,297.5610657H161.0026703V170.1893311    h189.9978485V297.5610657z" fill="#FFFFFF"/></g></g></svg>